<svg width="16" height="19" viewBox="0 0 16 19" fill="none" xmlns="http://www.w3.org/2000/svg">
<path d="M14 12.7455V8.21519C14 5.43358 12.36 3.10501 9.5 2.48888V1.87276C9.5 1.12073 8.83 0.513672 8 0.513672C7.17 0.513672 6.5 1.12073 6.5 1.87276V2.48888C3.63 3.10501 2 5.42452 2 8.21519V12.7455L0 14.5576V15.4637H16V14.5576L14 12.7455ZM9 12.7455H7V10.9334H9V12.7455ZM9 9.12125H7V5.49701H9V9.12125ZM8 18.1819C9.1 18.1819 10 17.3664 10 16.3697H6C6 17.3664 6.89 18.1819 8 18.1819Z" fill="#FFD25E"/>
</svg>
